<mxfile host="app.diagrams.net" modified="2024-02-12T19:38:41.448Z" agent="Mozilla/5.0 (Macintosh; Intel Mac OS X 10_15_7) AppleWebKit/537.36 (KHTML, like Gecko) Chrome/121.0.0.0 Safari/537.36" etag="IkSPiqpqbjrYYaGBeocy" version="23.1.3" type="device">
  <diagram name="Page-1" id="6EYGPfbPui8dBrHmO3Yg">
    <mxGraphModel dx="1434" dy="668" grid="1" gridSize="10" guides="1" tooltips="1" connect="1" arrows="1" fold="1" page="1" pageScale="1" pageWidth="850" pageHeight="1100" math="0" shadow="0">
      <root>
        <mxCell id="0" />
        <mxCell id="1" parent="0" />
        <mxCell id="VbYJDXhLfsBkSM6QtZA3-1" value="MathGame" style="swimlane;fontStyle=1;align=center;verticalAlign=top;childLayout=stackLayout;horizontal=1;startSize=26;horizontalStack=0;resizeParent=1;resizeParentMax=0;resizeLast=0;collapsible=1;marginBottom=0;whiteSpace=wrap;html=1;" vertex="1" parent="1">
          <mxGeometry x="280" y="240" width="160" height="180" as="geometry" />
        </mxCell>
        <mxCell id="VbYJDXhLfsBkSM6QtZA3-2" value="+ ap: ArithmeticProblem[]&lt;br&gt;+ gp: GeometryProblem[]&lt;br&gt;+ pp: ProbabilityProblem[]&lt;br&gt;+ cp: CalculusProblem[]&lt;br&gt;+ timer: Timer&lt;br&gt;+ time: double&lt;br&gt;+ score: int" style="text;strokeColor=none;fillColor=none;align=left;verticalAlign=top;spacingLeft=4;spacingRight=4;overflow=hidden;rotatable=0;points=[[0,0.5],[1,0.5]];portConstraint=eastwest;whiteSpace=wrap;html=1;" vertex="1" parent="VbYJDXhLfsBkSM6QtZA3-1">
          <mxGeometry y="26" width="160" height="104" as="geometry" />
        </mxCell>
        <mxCell id="VbYJDXhLfsBkSM6QtZA3-3" value="" style="line;strokeWidth=1;fillColor=none;align=left;verticalAlign=middle;spacingTop=-1;spacingLeft=3;spacingRight=3;rotatable=0;labelPosition=right;points=[];portConstraint=eastwest;strokeColor=inherit;" vertex="1" parent="VbYJDXhLfsBkSM6QtZA3-1">
          <mxGeometry y="130" width="160" height="8" as="geometry" />
        </mxCell>
        <mxCell id="VbYJDXhLfsBkSM6QtZA3-4" value="+ invalid(): boolean&lt;br&gt;+ displayProblem(): void" style="text;strokeColor=none;fillColor=none;align=left;verticalAlign=top;spacingLeft=4;spacingRight=4;overflow=hidden;rotatable=0;points=[[0,0.5],[1,0.5]];portConstraint=eastwest;whiteSpace=wrap;html=1;" vertex="1" parent="VbYJDXhLfsBkSM6QtZA3-1">
          <mxGeometry y="138" width="160" height="42" as="geometry" />
        </mxCell>
        <mxCell id="VbYJDXhLfsBkSM6QtZA3-5" value="ArithmeticProblem" style="swimlane;fontStyle=1;align=center;verticalAlign=top;childLayout=stackLayout;horizontal=1;startSize=26;horizontalStack=0;resizeParent=1;resizeParentMax=0;resizeLast=0;collapsible=1;marginBottom=0;whiteSpace=wrap;html=1;" vertex="1" parent="1">
          <mxGeometry x="40" y="240" width="160" height="130" as="geometry" />
        </mxCell>
        <mxCell id="VbYJDXhLfsBkSM6QtZA3-6" value="+ n1: double&lt;br&gt;+ n2: double&lt;br&gt;+ o: char&lt;br&gt;" style="text;strokeColor=none;fillColor=none;align=left;verticalAlign=top;spacingLeft=4;spacingRight=4;overflow=hidden;rotatable=0;points=[[0,0.5],[1,0.5]];portConstraint=eastwest;whiteSpace=wrap;html=1;" vertex="1" parent="VbYJDXhLfsBkSM6QtZA3-5">
          <mxGeometry y="26" width="160" height="54" as="geometry" />
        </mxCell>
        <mxCell id="VbYJDXhLfsBkSM6QtZA3-7" value="" style="line;strokeWidth=1;fillColor=none;align=left;verticalAlign=middle;spacingTop=-1;spacingLeft=3;spacingRight=3;rotatable=0;labelPosition=right;points=[];portConstraint=eastwest;strokeColor=inherit;" vertex="1" parent="VbYJDXhLfsBkSM6QtZA3-5">
          <mxGeometry y="80" width="160" height="8" as="geometry" />
        </mxCell>
        <mxCell id="VbYJDXhLfsBkSM6QtZA3-8" value="+ ans(): double&lt;br&gt;+ text(): String" style="text;strokeColor=none;fillColor=none;align=left;verticalAlign=top;spacingLeft=4;spacingRight=4;overflow=hidden;rotatable=0;points=[[0,0.5],[1,0.5]];portConstraint=eastwest;whiteSpace=wrap;html=1;" vertex="1" parent="VbYJDXhLfsBkSM6QtZA3-5">
          <mxGeometry y="88" width="160" height="42" as="geometry" />
        </mxCell>
        <mxCell id="VbYJDXhLfsBkSM6QtZA3-9" value="GeometryProblem" style="swimlane;fontStyle=1;align=center;verticalAlign=top;childLayout=stackLayout;horizontal=1;startSize=26;horizontalStack=0;resizeParent=1;resizeParentMax=0;resizeLast=0;collapsible=1;marginBottom=0;whiteSpace=wrap;html=1;" vertex="1" parent="1">
          <mxGeometry x="520" y="240" width="160" height="130" as="geometry" />
        </mxCell>
        <mxCell id="VbYJDXhLfsBkSM6QtZA3-10" value="+ s: String&lt;br&gt;+ n1: double&lt;br&gt;+ n2: double" style="text;strokeColor=none;fillColor=none;align=left;verticalAlign=top;spacingLeft=4;spacingRight=4;overflow=hidden;rotatable=0;points=[[0,0.5],[1,0.5]];portConstraint=eastwest;whiteSpace=wrap;html=1;" vertex="1" parent="VbYJDXhLfsBkSM6QtZA3-9">
          <mxGeometry y="26" width="160" height="54" as="geometry" />
        </mxCell>
        <mxCell id="VbYJDXhLfsBkSM6QtZA3-11" value="" style="line;strokeWidth=1;fillColor=none;align=left;verticalAlign=middle;spacingTop=-1;spacingLeft=3;spacingRight=3;rotatable=0;labelPosition=right;points=[];portConstraint=eastwest;strokeColor=inherit;" vertex="1" parent="VbYJDXhLfsBkSM6QtZA3-9">
          <mxGeometry y="80" width="160" height="8" as="geometry" />
        </mxCell>
        <mxCell id="VbYJDXhLfsBkSM6QtZA3-12" value="+ ans(): double&lt;br&gt;+ text(): String" style="text;strokeColor=none;fillColor=none;align=left;verticalAlign=top;spacingLeft=4;spacingRight=4;overflow=hidden;rotatable=0;points=[[0,0.5],[1,0.5]];portConstraint=eastwest;whiteSpace=wrap;html=1;" vertex="1" parent="VbYJDXhLfsBkSM6QtZA3-9">
          <mxGeometry y="88" width="160" height="42" as="geometry" />
        </mxCell>
        <mxCell id="VbYJDXhLfsBkSM6QtZA3-13" value="ProbabilityProblem" style="swimlane;fontStyle=1;align=center;verticalAlign=top;childLayout=stackLayout;horizontal=1;startSize=26;horizontalStack=0;resizeParent=1;resizeParentMax=0;resizeLast=0;collapsible=1;marginBottom=0;whiteSpace=wrap;html=1;" vertex="1" parent="1">
          <mxGeometry x="280" y="460" width="160" height="130" as="geometry" />
        </mxCell>
        <mxCell id="VbYJDXhLfsBkSM6QtZA3-14" value="+ t: String&lt;br&gt;+ n1: double&lt;br&gt;+ n2: double" style="text;strokeColor=none;fillColor=none;align=left;verticalAlign=top;spacingLeft=4;spacingRight=4;overflow=hidden;rotatable=0;points=[[0,0.5],[1,0.5]];portConstraint=eastwest;whiteSpace=wrap;html=1;" vertex="1" parent="VbYJDXhLfsBkSM6QtZA3-13">
          <mxGeometry y="26" width="160" height="54" as="geometry" />
        </mxCell>
        <mxCell id="VbYJDXhLfsBkSM6QtZA3-15" value="" style="line;strokeWidth=1;fillColor=none;align=left;verticalAlign=middle;spacingTop=-1;spacingLeft=3;spacingRight=3;rotatable=0;labelPosition=right;points=[];portConstraint=eastwest;strokeColor=inherit;" vertex="1" parent="VbYJDXhLfsBkSM6QtZA3-13">
          <mxGeometry y="80" width="160" height="8" as="geometry" />
        </mxCell>
        <mxCell id="VbYJDXhLfsBkSM6QtZA3-16" value="+ ans(): double&lt;br&gt;+ text(): String" style="text;strokeColor=none;fillColor=none;align=left;verticalAlign=top;spacingLeft=4;spacingRight=4;overflow=hidden;rotatable=0;points=[[0,0.5],[1,0.5]];portConstraint=eastwest;whiteSpace=wrap;html=1;" vertex="1" parent="VbYJDXhLfsBkSM6QtZA3-13">
          <mxGeometry y="88" width="160" height="42" as="geometry" />
        </mxCell>
        <mxCell id="VbYJDXhLfsBkSM6QtZA3-23" style="edgeStyle=orthogonalEdgeStyle;rounded=0;orthogonalLoop=1;jettySize=auto;html=1;entryX=0.5;entryY=0;entryDx=0;entryDy=0;" edge="1" parent="1" source="VbYJDXhLfsBkSM6QtZA3-17" target="VbYJDXhLfsBkSM6QtZA3-1">
          <mxGeometry relative="1" as="geometry" />
        </mxCell>
        <mxCell id="VbYJDXhLfsBkSM6QtZA3-17" value="CalculusProblem" style="swimlane;fontStyle=1;align=center;verticalAlign=top;childLayout=stackLayout;horizontal=1;startSize=26;horizontalStack=0;resizeParent=1;resizeParentMax=0;resizeLast=0;collapsible=1;marginBottom=0;whiteSpace=wrap;html=1;" vertex="1" parent="1">
          <mxGeometry x="280" y="40" width="160" height="140" as="geometry" />
        </mxCell>
        <mxCell id="VbYJDXhLfsBkSM6QtZA3-18" value="+ t: String&lt;br&gt;+ f: int[][]&lt;br&gt;+ n1: double&lt;br&gt;+ n2: double" style="text;strokeColor=none;fillColor=none;align=left;verticalAlign=top;spacingLeft=4;spacingRight=4;overflow=hidden;rotatable=0;points=[[0,0.5],[1,0.5]];portConstraint=eastwest;whiteSpace=wrap;html=1;" vertex="1" parent="VbYJDXhLfsBkSM6QtZA3-17">
          <mxGeometry y="26" width="160" height="64" as="geometry" />
        </mxCell>
        <mxCell id="VbYJDXhLfsBkSM6QtZA3-19" value="" style="line;strokeWidth=1;fillColor=none;align=left;verticalAlign=middle;spacingTop=-1;spacingLeft=3;spacingRight=3;rotatable=0;labelPosition=right;points=[];portConstraint=eastwest;strokeColor=inherit;" vertex="1" parent="VbYJDXhLfsBkSM6QtZA3-17">
          <mxGeometry y="90" width="160" height="8" as="geometry" />
        </mxCell>
        <mxCell id="VbYJDXhLfsBkSM6QtZA3-20" value="+ ans(): double&lt;br&gt;+ text(): String" style="text;strokeColor=none;fillColor=none;align=left;verticalAlign=top;spacingLeft=4;spacingRight=4;overflow=hidden;rotatable=0;points=[[0,0.5],[1,0.5]];portConstraint=eastwest;whiteSpace=wrap;html=1;" vertex="1" parent="VbYJDXhLfsBkSM6QtZA3-17">
          <mxGeometry y="98" width="160" height="42" as="geometry" />
        </mxCell>
        <mxCell id="VbYJDXhLfsBkSM6QtZA3-21" style="edgeStyle=orthogonalEdgeStyle;rounded=0;orthogonalLoop=1;jettySize=auto;html=1;exitX=1;exitY=0.5;exitDx=0;exitDy=0;entryX=0;entryY=0.5;entryDx=0;entryDy=0;" edge="1" parent="1" source="VbYJDXhLfsBkSM6QtZA3-6" target="VbYJDXhLfsBkSM6QtZA3-2">
          <mxGeometry relative="1" as="geometry" />
        </mxCell>
        <mxCell id="VbYJDXhLfsBkSM6QtZA3-22" style="edgeStyle=orthogonalEdgeStyle;rounded=0;orthogonalLoop=1;jettySize=auto;html=1;entryX=1;entryY=0.5;entryDx=0;entryDy=0;" edge="1" parent="1" source="VbYJDXhLfsBkSM6QtZA3-10" target="VbYJDXhLfsBkSM6QtZA3-2">
          <mxGeometry relative="1" as="geometry" />
        </mxCell>
        <mxCell id="VbYJDXhLfsBkSM6QtZA3-26" value="Timer" style="swimlane;fontStyle=1;align=center;verticalAlign=top;childLayout=stackLayout;horizontal=1;startSize=26;horizontalStack=0;resizeParent=1;resizeParentMax=0;resizeLast=0;collapsible=1;marginBottom=0;whiteSpace=wrap;html=1;" vertex="1" parent="1">
          <mxGeometry x="40" y="440" width="160" height="110" as="geometry" />
        </mxCell>
        <mxCell id="VbYJDXhLfsBkSM6QtZA3-27" value="+ savedTime: int&lt;br&gt;+ totalTime: int" style="text;strokeColor=none;fillColor=none;align=left;verticalAlign=top;spacingLeft=4;spacingRight=4;overflow=hidden;rotatable=0;points=[[0,0.5],[1,0.5]];portConstraint=eastwest;whiteSpace=wrap;html=1;" vertex="1" parent="VbYJDXhLfsBkSM6QtZA3-26">
          <mxGeometry y="26" width="160" height="34" as="geometry" />
        </mxCell>
        <mxCell id="VbYJDXhLfsBkSM6QtZA3-28" value="" style="line;strokeWidth=1;fillColor=none;align=left;verticalAlign=middle;spacingTop=-1;spacingLeft=3;spacingRight=3;rotatable=0;labelPosition=right;points=[];portConstraint=eastwest;strokeColor=inherit;" vertex="1" parent="VbYJDXhLfsBkSM6QtZA3-26">
          <mxGeometry y="60" width="160" height="8" as="geometry" />
        </mxCell>
        <mxCell id="VbYJDXhLfsBkSM6QtZA3-29" value="+ start(): void&lt;br&gt;+ finish(): boolean" style="text;strokeColor=none;fillColor=none;align=left;verticalAlign=top;spacingLeft=4;spacingRight=4;overflow=hidden;rotatable=0;points=[[0,0.5],[1,0.5]];portConstraint=eastwest;whiteSpace=wrap;html=1;" vertex="1" parent="VbYJDXhLfsBkSM6QtZA3-26">
          <mxGeometry y="68" width="160" height="42" as="geometry" />
        </mxCell>
        <mxCell id="VbYJDXhLfsBkSM6QtZA3-31" style="edgeStyle=orthogonalEdgeStyle;rounded=0;orthogonalLoop=1;jettySize=auto;html=1;exitX=0.5;exitY=0;exitDx=0;exitDy=0;entryX=-0.009;entryY=0.784;entryDx=0;entryDy=0;entryPerimeter=0;" edge="1" parent="1" source="VbYJDXhLfsBkSM6QtZA3-26" target="VbYJDXhLfsBkSM6QtZA3-2">
          <mxGeometry relative="1" as="geometry">
            <Array as="points">
              <mxPoint x="120" y="410" />
              <mxPoint x="230" y="410" />
              <mxPoint x="230" y="348" />
            </Array>
          </mxGeometry>
        </mxCell>
        <mxCell id="VbYJDXhLfsBkSM6QtZA3-32" style="edgeStyle=orthogonalEdgeStyle;rounded=0;orthogonalLoop=1;jettySize=auto;html=1;entryX=0.5;entryY=1;entryDx=0;entryDy=0;entryPerimeter=0;" edge="1" parent="1" source="VbYJDXhLfsBkSM6QtZA3-13" target="VbYJDXhLfsBkSM6QtZA3-4">
          <mxGeometry relative="1" as="geometry" />
        </mxCell>
        <mxCell id="VbYJDXhLfsBkSM6QtZA3-33" value="Use code from Daniel Shiffman in Processing." style="text;html=1;align=center;verticalAlign=middle;whiteSpace=wrap;rounded=0;" vertex="1" parent="1">
          <mxGeometry x="40" y="560" width="160" height="40" as="geometry" />
        </mxCell>
        <mxCell id="VbYJDXhLfsBkSM6QtZA3-35" value="Types will be counting, discreetProbability, and geometricProbablity." style="text;html=1;align=center;verticalAlign=middle;whiteSpace=wrap;rounded=0;" vertex="1" parent="1">
          <mxGeometry x="440" y="460" width="160" height="130" as="geometry" />
        </mxCell>
        <mxCell id="VbYJDXhLfsBkSM6QtZA3-36" value="Shapes will be rectangle, parallelogram, circle, ellipse, triangle, angleRightTriangle, and lengthRightTriangle." style="text;html=1;align=center;verticalAlign=middle;whiteSpace=wrap;rounded=0;" vertex="1" parent="1">
          <mxGeometry x="680" y="240" width="160" height="130" as="geometry" />
        </mxCell>
        <mxCell id="VbYJDXhLfsBkSM6QtZA3-37" value="Types will be derivative and integral." style="text;html=1;align=center;verticalAlign=middle;whiteSpace=wrap;rounded=0;" vertex="1" parent="1">
          <mxGeometry x="440" y="40" width="160" height="140" as="geometry" />
        </mxCell>
        <mxCell id="VbYJDXhLfsBkSM6QtZA3-38" value="Operations will be +, -, *, /, ^, and %." style="text;html=1;align=center;verticalAlign=middle;whiteSpace=wrap;rounded=0;" vertex="1" parent="1">
          <mxGeometry x="40" y="160" width="160" height="80" as="geometry" />
        </mxCell>
      </root>
    </mxGraphModel>
  </diagram>
</mxfile>
